<svg width="30" height="30" viewBox="0 0 24 24" fill="none" xmlns="http://www.w3.org/2000/svg">
<a href = "https://www.instagram.com/blek_np/" target="_blank">
<path d="M20.4844 0H3.51562C1.57727 0 0 1.57727 0 3.51562V20.4844C0 22.4227 1.57727 24 3.51562 24H20.4844C22.4227 24 24 22.4227 24 20.4844V3.51562C24 1.57727 22.4227 0 20.4844 0ZM12.0469 18.2812C8.55743 18.2812 5.71875 15.4426 5.71875 11.9531C5.71875 8.46368 8.55743 5.625 12.0469 5.625C15.5363 5.625 18.375 8.46368 18.375 11.9531C18.375 15.4426 15.5363 18.2812 12.0469 18.2812ZM19.0781 7.03125C17.915 7.03125 16.9688 6.08496 16.9688 4.92188C16.9688 3.75879 17.915 2.8125 19.0781 2.8125C20.2412 2.8125 21.1875 3.75879 21.1875 4.92188C21.1875 6.08496 20.2412 7.03125 19.0781 7.03125Z" fill="white"/>
<path d="M19.0778 4.21875C18.69 4.21875 18.375 4.53434 18.375 4.9229C18.375 5.31147 18.69 5.62706 19.0778 5.62706C19.4656 5.62706 19.7806 5.31147 19.7806 4.9229C19.7806 4.53434 19.4656 4.21875 19.0778 4.21875Z" fill="#ffffff"/>
<path d="M12 7.09985C9.28638 7.09985 7.07812 9.30811 7.07812 12.0217C7.07812 14.7354 9.28638 16.9436 12 16.9436C14.7136 16.9436 16.9219 14.7354 16.9219 12.0217C16.9219 9.30811 14.7136 7.09985 12 7.09985Z" fill="#ffffff"/>
</a>
</svg>

